<?xml version="1.0" encoding="utf-8"?>
<!-- Generator: Adobe Illustrator 17.1.0, SVG Export Plug-In . SVG Version: 6.00 Build 0)  -->
<!DOCTYPE svg PUBLIC "-//W3C//DTD SVG 1.1//EN" "http://www.w3.org/Graphics/SVG/1.1/DTD/svg11.dtd">
<svg version="1.1" id="Calque_1" xmlns="http://www.w3.org/2000/svg" xmlns:xlink="http://www.w3.org/1999/xlink" x="0px" y="0px"
	 viewBox="0 0 121 121" enable-background="new 0 0 121 121" xml:space="preserve">
<circle fill="#FFFFFF" cx="60.5" cy="60.5" r="60.5"/>
<g>
	<path d="M61.5,42.1c0.9,0,1.5-0.7,1.5-1.6v-9.2c0-0.9-0.6-1.6-1.5-1.6c-0.9,0-1.5,0.7-1.5,1.6v9.2C60,41.3,60.6,42.1,61.5,42.1z"/>
	<path d="M76.6,47.2l6.4-6.6c0.6-0.6,0.6-1.7,0-2.3c-0.6-0.6-1.7-0.6-2.3,0L74.2,45c-0.6,0.6-0.6,1.7,0,2.3
		C74.9,47.9,75.9,47.9,76.6,47.2z"/>
	<path d="M90.8,58.2l-9.2,0.3c-0.9,0-1.6,0.8-1.6,1.7c0,0.9,0.8,1.6,1.7,1.6l9.2-0.3c0.9,0,1.6-0.8,1.6-1.7
		C92.5,58.9,91.7,58.2,90.8,58.2z"/>
	<path d="M77.5,73.2c-0.7-0.6-1.7-0.6-2.3,0.1c-0.6,0.7-0.6,1.7,0.1,2.3l6.8,6.2c0.7,0.6,1.7,0.6,2.3-0.1c0.6-0.7,0.6-1.7-0.1-2.3
		L77.5,73.2z"/>
	<path d="M62.5,79.5c-0.9,0.1-1.6,0.8-1.5,1.7l0.5,9.2c0.1,0.9,0.8,1.6,1.7,1.5c0.9-0.1,1.6-0.8,1.5-1.7L64.2,81
		C64.2,80.1,63.4,79.4,62.5,79.5z"/>
	<path d="M46.9,75.2l-6.1,7c-0.6,0.7-0.5,1.7,0.2,2.3c0.7,0.6,1.7,0.5,2.3-0.2l6.1-7c0.6-0.7,0.5-1.7-0.2-2.3
		C48.5,74.4,47.4,74.5,46.9,75.2z"/>
	<path d="M42.7,62.5c-0.1-0.9-0.9-1.6-1.8-1.5l-9.2,0.8c-0.9,0.1-1.6,0.9-1.5,1.8c0.1,0.9,0.9,1.6,1.8,1.5l9.2-0.8
		C42.1,64.2,42.8,63.4,42.7,62.5z"/>
	<path d="M44.4,49.3c0.7,0.6,1.7,0.5,2.3-0.2c0.6-0.7,0.5-1.7-0.2-2.3l-7.2-5.8c-0.7-0.6-1.7-0.5-2.3,0.2c-0.6,0.7-0.5,1.7,0.2,2.3
		L44.4,49.3z"/>
	<path d="M61.6,46.7c-7.2,0-13.1,5.9-13.1,13.1c0,7.2,5.9,13.1,13.1,13.1c7.2,0,13.1-5.9,13.1-13.1C74.7,52.6,68.8,46.7,61.6,46.7z
		 M61.6,70.5c-5.9,0-10.6-4.8-10.6-10.6c0-5.9,4.8-10.6,10.6-10.6c5.9,0,10.6,4.8,10.6,10.6C72.2,65.7,67.4,70.5,61.6,70.5z"/>
</g>
</svg>
