<?xml version="1.0" encoding="utf-8"?>
<!-- Generator: Adobe Illustrator 17.1.0, SVG Export Plug-In . SVG Version: 6.00 Build 0)  -->
<!DOCTYPE svg PUBLIC "-//W3C//DTD SVG 1.1//EN" "http://www.w3.org/Graphics/SVG/1.1/DTD/svg11.dtd">
<svg version="1.1" id="Calque_1" xmlns="http://www.w3.org/2000/svg" xmlns:xlink="http://www.w3.org/1999/xlink" x="0px" y="0px"
	 viewBox="0 0 121 121" enable-background="new 0 0 121 121" xml:space="preserve">
<circle fill="#FFFFFF" cx="60.5" cy="60.5" r="60.5"/>
<path d="M81.6,64c-0.4-0.2-0.9-0.2-1.2,0.2c-3.1,3-7.2,4.7-11.5,4.7c-9,0-16.6-7.6-16.6-16.6c0-4.2,1.7-8.3,4.7-11.5
	c0.3-0.3,0.4-0.8,0.2-1.2c-0.2-0.4-0.7-0.6-1.1-0.5c-9.8,2.3-16.9,11.2-16.9,21.2c0,11.8,10,21.8,21.8,21.8c10,0,18.9-7.1,21.2-16.9
	C82.2,64.7,82,64.2,81.6,64z M60.9,80c-10.7,0-19.7-9-19.7-19.7c0-7.9,4.9-15.1,12.1-18.2c-2,3-3,6.5-3,10.1
	c0,10.1,8.6,18.7,18.7,18.7c3.6,0,7.1-1.1,10.1-3C76,75,68.8,80,60.9,80z"/>
</svg>
